<svg id="Component_9_2" data-name="Component 9 – 2" xmlns="http://www.w3.org/2000/svg" width="185.141" height="44.56" viewBox="0 0 185.141 44.56">
  <path id="Path_1" data-name="Path 1" d="M296.426,826.19a15.107,15.107,0,0,0-6.166-5.855,19.573,19.573,0,0,0-9.276-2.11H270.2v33.064h10.784a19.464,19.464,0,0,0,9.254-2.128,15.2,15.2,0,0,0,6.189-5.883,17.873,17.873,0,0,0,0-17.087Zm-5.992,14.136a8.842,8.842,0,0,1-3.681,3.686,11.638,11.638,0,0,1-5.591,1.283h-4.083V824.216h4.083a11.639,11.639,0,0,1,5.591,1.288,8.882,8.882,0,0,1,3.681,3.659,12.737,12.737,0,0,1,0,11.163Z" transform="translate(-270.2 -816.493)" fill="#fff"/>
  <path id="Path_2" data-name="Path 2" d="M358.125,848.333a12.979,12.979,0,0,0-1.42-6.1,10.378,10.378,0,0,0-4.124-4.284,12.752,12.752,0,0,0-6.436-1.553,12.048,12.048,0,0,0-6.216,1.644,11.745,11.745,0,0,0-4.389,4.526,13.021,13.021,0,0,0-1.6,6.436,13.23,13.23,0,0,0,1.576,6.413,11.683,11.683,0,0,0,4.458,4.595,13.828,13.828,0,0,0,13.113.064,8.819,8.819,0,0,0,3.928-4.28l-5.326-2.53a5.032,5.032,0,0,1-2,1.95,6.134,6.134,0,0,1-3.019.713,5.758,5.758,0,0,1-3.969-1.357,5.677,5.677,0,0,1-1.841-3.659h16.95A8.364,8.364,0,0,0,358.125,848.333ZM341,846.027a5.419,5.419,0,0,1,1.795-3.2,5.115,5.115,0,0,1,3.353-1.11,4.893,4.893,0,0,1,3.371,1.178,4.7,4.7,0,0,1,1.553,3.129Z" transform="translate(-304.827 -826.364)" fill="#fff"/>
  <path id="Path_3" data-name="Path 3" d="M406.459,849.466a9.642,9.642,0,0,0-4.8-2.731l-3.859-.8a5.055,5.055,0,0,1-2.064-.909,1.675,1.675,0,0,1-.644-1.306,1.7,1.7,0,0,1,.754-1.466,3.652,3.652,0,0,1,2.133-.534,5.645,5.645,0,0,1,3.06.868A4.779,4.779,0,0,1,403,844.871l4.837-2.485a9.275,9.275,0,0,0-3.773-4.417,11.166,11.166,0,0,0-5.947-1.576,12.114,12.114,0,0,0-4.947.955,7.664,7.664,0,0,0-3.33,2.686,7.313,7.313,0,0,0,.53,8.678,8.7,8.7,0,0,0,4.727,2.686l4.129.8a3.635,3.635,0,0,1,1.864.795,1.819,1.819,0,0,1,.621,1.379,1.85,1.85,0,0,1-.8,1.594,3.8,3.8,0,0,1-2.261.58,6.039,6.039,0,0,1-3.462-1.046,7.7,7.7,0,0,1-2.53-2.9l-4.8,2.485a9.187,9.187,0,0,0,3.974,4.814,13.715,13.715,0,0,0,11.738.8,7.789,7.789,0,0,0,3.375-2.686,6.863,6.863,0,0,0,1.2-3.992A6.585,6.585,0,0,0,406.459,849.466Z" transform="translate(-334.119 -826.364)" fill="#fff"/>
  <path id="Path_4" data-name="Path 4" d="M441.394,815.389a4.477,4.477,0,0,0-5.527,0,3.747,3.747,0,0,0,2.75,6.5,3.934,3.934,0,0,0,2.777-6.5Zm-6.1,9.61v24.23h6.655V825Z" transform="translate(-359.669 -814.434)" fill="#fff"/>
  <path id="Path_5" data-name="Path 5" d="M472.67,836.928v2.53a8.72,8.72,0,0,0-7.057-3.065,11.848,11.848,0,0,0-5.97,1.512,10.708,10.708,0,0,0-4.124,4.193,12.937,12.937,0,0,0,.023,12.095,10.9,10.9,0,0,0,4.193,4.239,11.95,11.95,0,0,0,6.015,1.53,8.754,8.754,0,0,0,6.477-2.4v2.307a4.886,4.886,0,0,1-1.42,3.709,5.435,5.435,0,0,1-3.905,1.352,6.456,6.456,0,0,1-3.595-.977,4.606,4.606,0,0,1-2-2.663l-6.171,2.179a10.162,10.162,0,0,0,4.348,5.435,13.621,13.621,0,0,0,7.413,2.019,13.251,13.251,0,0,0,6.193-1.42,10.6,10.6,0,0,0,4.257-3.928,10.7,10.7,0,0,0,1.535-5.7V836.928Zm-1.973,15.42a5.336,5.336,0,0,1-4.015,1.576,5.658,5.658,0,0,1-4.152-1.594,5.564,5.564,0,0,1-1.621-4.129,5.676,5.676,0,0,1,1.621-4.193,5.606,5.606,0,0,1,4.152-1.621,5.269,5.269,0,0,1,4.015,1.621,5.858,5.858,0,0,1,1.53,4.193A5.694,5.694,0,0,1,470.7,852.348Z" transform="translate(-370.067 -826.364)" fill="#fff"/>
  <path id="Path_6" data-name="Path 6" d="M535.313,840.788a8.151,8.151,0,0,0-3.238-3.238,9.76,9.76,0,0,0-4.791-1.156,9.185,9.185,0,0,0-4.106.868,6,6,0,0,0-2.686,2.594v-2.928H514.28v24.23h6.655V847a4.627,4.627,0,0,1,1.219-3.353,4.725,4.725,0,0,1,6.436,0A4.627,4.627,0,0,1,529.809,847v14.155h6.659V845.584A9.729,9.729,0,0,0,535.313,840.788Z" transform="translate(-402.798 -826.364)" fill="#fff"/>
  <path id="Path_7" data-name="Path 7" d="M594.512,821.412a14.584,14.584,0,0,0-4.905-3.174,17.776,17.776,0,0,0-14.913,1.023,15.775,15.775,0,0,0-5.97,6.1,18.663,18.663,0,0,0,0,17.484,15.921,15.921,0,0,0,5.992,6.125,17.6,17.6,0,0,0,14.89,1.041c.429-.174.845-.361,1.247-.566a16.312,16.312,0,0,1-1.886-2.544,15.4,15.4,0,0,1-1.389-3,8.624,8.624,0,0,1-4.339,1.073,9.6,9.6,0,0,1-5.129-1.375,9.191,9.191,0,0,1-3.462-3.837,13.74,13.74,0,0,1,0-11.318,9.088,9.088,0,0,1,3.462-3.818,9.752,9.752,0,0,1,5.129-1.352,8.449,8.449,0,0,1,5.056,1.53,8.185,8.185,0,0,1,2.517,2.882,16.026,16.026,0,0,1,4.261-3.357c.416-.228.836-.434,1.261-.626A12.4,12.4,0,0,0,594.512,821.412Z" transform="translate(-431.194 -815.863)" fill="#fff"/>
  <g id="Group_2" data-name="Group 2" transform="translate(159.175 10.03)">
    <g id="Group_1" data-name="Group 1">
      <path id="Path_8" data-name="Path 8" d="M642.935,842.565a12.373,12.373,0,0,0-4.7-4.526,13.812,13.812,0,0,0-13.072,0,12.286,12.286,0,0,0-6.458,11.008,13.571,13.571,0,0,0,.215,2.425,11.91,11.91,0,0,0,1.516,4.051,12.27,12.27,0,0,0,1.832,2.361,12.59,12.59,0,0,0,2.9,2.165,13.813,13.813,0,0,0,13.072,0,12.742,12.742,0,0,0,4.7-17.484ZM636.1,853.837A5.642,5.642,0,0,1,631.7,855.7a5.708,5.708,0,0,1-4.412-1.864,7.58,7.58,0,0,1,0-9.587,6.112,6.112,0,0,1,8.788,0,7.611,7.611,0,0,1,.018,9.587Z" transform="translate(-618.7 -836.394)" fill="#fff"/>
    </g>
  </g>
</svg>
